<svg xmlns="http://www.w3.org/2000/svg" version="1.1" xmlns:xlink="http://www.w3.org/1999/xlink" width="479.0277555640106" height="200" viewBox="-1.7599999904632568 9.119999885559082 127.95999908447266 47.60000228881836"><path d="M11.24 33.68L11.24 33.68Q13.08 35.08 16.68 35.08L16.68 35.08L16.84 35.08Q19.08 30.92 21.12 27.40L21.12 27.40Q15 31 11.24 33.68ZM34.84 14.76L34.84 14.76Q34.84 13.40 33 13.16L33 13.16Q29.52 17.20 25.32 23.80L25.32 23.80Q30 21 32.42 18.88Q34.84 16.76 34.84 14.76ZM15.70 19.54Q12.92 22.04 11.22 24.86Q9.52 27.68 9.52 29.72Q9.52 31.76 10.44 32.92L10.44 32.92Q14.20 30.28 22.08 25.72L22.08 25.72Q26.88 17.48 30.76 13.16L30.76 13.16Q26.56 13.44 22.52 15.24Q18.48 17.04 15.70 19.54ZM16.40 35.88L16.40 35.88L15.56 35.88Q12.04 35.88 9.88 34.64L9.88 34.64Q-0.36 42.20-0.36 49.48L-0.36 49.48Q-0.36 53.96 2.76 53.96L2.76 53.96Q4.24 53.96 5.76 52.44L5.76 52.44Q6.64 51.60 7.34 50.84Q8.04 50.08 9.06 48.52Q10.08 46.96 10.74 45.90Q11.40 44.84 12.60 42.74Q13.80 40.64 14.42 39.48Q15.04 38.32 16.40 35.88ZM35.80 14.68L35.80 14.68Q35.76 17.04 32.84 19.56Q29.92 22.08 24.24 25.52L24.24 25.52Q21.12 30.56 18.60 34.96L18.60 34.96Q22.48 34.36 25.16 32.12L25.16 32.12Q25.32 32 25.52 32Q25.72 32 25.72 32.22Q25.72 32.44 24.84 33.10Q23.96 33.76 22.10 34.56Q20.24 35.36 18.20 35.68L18.20 35.68Q11.84 46.48 9.44 49.52L9.44 49.52Q6.20 53.64 4.24 54.72L4.24 54.72Q3.04 55.36 1.92 55.36L1.92 55.36Q0.20 55.36-0.78 53.84Q-1.76 52.32-1.76 50.40L-1.76 50.40Q-1.76 42 9 33.96L9 33.96Q7.44 32.56 7.44 30.14Q7.44 27.72 9.30 24.74Q11.16 21.76 14.26 19.12Q17.36 16.48 21.94 14.60Q26.52 12.72 31.40 12.44L31.40 12.44Q33.28 10.48 34.68 9.44L34.68 9.44Q35.16 9.12 35.90 9.12Q36.64 9.12 36.64 9.52L36.64 9.52Q36.64 9.72 36.08 10.12Q35.52 10.52 35.24 10.76L35.24 10.76L33.60 12.48Q34.52 12.68 35.16 13.32Q35.80 13.96 35.80 14.68ZM27.88 39.48L27.88 39.48Q27.88 38.88 28.46 37.92Q29.04 36.96 29.08 36.80Q29.12 36.64 29 36.64Q28.88 36.64 28.66 36.86Q28.44 37.08 26.22 38.54Q24 40 23.16 40L23.16 40Q22.60 40 22.60 39.28Q22.60 38.56 24.84 35.56Q27.08 32.56 28 32.56L28 32.56Q28.20 32.56 28.38 32.74Q28.56 32.92 28.56 33.02Q28.56 33.12 26.50 35.48Q24.44 37.84 24.44 38.52L24.44 38.52Q24.44 38.68 24.60 38.68L24.60 38.68Q25.36 38.68 27.88 36.64Q30.40 34.60 31.46 33.48Q32.52 32.36 33.12 32.36Q33.72 32.36 33.72 32.88L33.72 32.88Q33.72 33.20 33.48 33.52Q33.24 33.84 32.58 34.66Q31.92 35.48 31.36 36.20L31.36 36.20Q29.80 38.20 29.80 38.70Q29.80 39.20 30.22 39.20Q30.64 39.20 32.28 38.08L32.28 38.08Q35.32 36.08 37.84 34.04L37.84 34.04L38.72 33.32Q39 33.12 39.20 33.12Q39.40 33.12 39.40 33.36L39.40 33.36L39.40 33.48Q39.56 33.48 37.26 35.24Q34.96 37 32.34 38.76Q29.72 40.52 29.04 40.52L29.04 40.52Q27.88 40.52 27.88 39.48ZM54.88 33.36L54.88 33.48Q46.44 40.52 44.44 40.52L44.44 40.52Q43.28 40.52 43.28 39.56Q43.28 38.60 44.14 37.28Q45 35.96 45.86 34.94Q46.72 33.92 46.72 33.72Q46.72 33.52 46.60 33.52L46.60 33.52Q42.88 36 42.18 36.56Q41.48 37.12 39.90 38.40Q38.32 39.68 37.84 40Q37.36 40.32 36.80 40.32L36.80 40.32Q36.24 40.32 36.24 39.84L36.24 39.84Q36.24 39.28 38.48 36.32L38.48 36.32Q40.64 33.36 40.64 33L40.64 33Q40.64 32.92 40.50 32.92Q40.36 32.92 37.04 35.36L37.04 35.36L36.88 34.76Q39.72 32.48 40.72 31.84Q41.72 31.20 42.34 31.20Q42.96 31.20 42.96 31.80L42.96 31.80Q42.96 32.20 40.70 35.06Q38.44 37.92 38.44 38.14Q38.44 38.36 38.58 38.36Q38.72 38.36 43.14 35.14Q47.56 31.92 48.52 31.92L48.52 31.92Q48.80 31.92 49.06 32.14Q49.32 32.36 49.32 32.56L49.32 32.56Q49.32 33.04 47.20 35.74Q45.08 38.44 45.08 38.80Q45.08 39.16 45.58 39.16Q46.08 39.16 47.72 38.08L47.72 38.08Q50.72 36.12 53.24 34.04L53.24 34.04L54.12 33.32Q54.40 33.12 54.64 33.12Q54.88 33.12 54.88 33.36L54.88 33.36ZM58.20 35.20L58.20 35.20Q57.96 35.20 57.96 35.02Q57.96 34.84 58.24 34.60L58.24 34.60Q59.56 33.52 59.56 32.64L59.56 32.64Q59.56 32.08 58.56 32L58.56 32Q56.76 32.04 54.26 34.60Q51.76 37.16 51.76 38.44L51.76 38.44Q51.76 38.88 52.26 38.88Q52.76 38.88 53.60 38.20L53.60 38.20Q54.36 37.72 56.44 35.80L56.44 35.80Q56.92 35.32 57.36 35.32L57.36 35.32Q57.92 35.32 57.92 35.84L57.92 35.84Q57.92 36.04 57.80 36.16Q57.68 36.28 57.36 36.66Q57.04 37.04 56.80 37.36L56.80 37.36Q56.08 38.40 56.08 38.72L56.08 38.72Q56.08 39.52 56.72 39.52L56.72 39.52Q57.56 39.52 59.88 37.98Q62.20 36.44 64.12 34.88L64.12 34.88L66.04 33.36Q66.32 33.16 66.56 33.16Q66.80 33.16 66.80 33.44L66.80 33.44L66.80 33.52Q63.72 36.12 60.30 38.40Q56.88 40.68 55.80 40.68L55.80 40.68Q54.52 40.68 54.52 39.32L54.52 39.32Q54.52 39 54.64 38.72Q54.76 38.44 54.76 38.32Q54.76 38.20 54.68 38.16L54.68 38.16Q54.56 38.16 53.14 39.24Q51.72 40.32 50.66 40.32Q49.60 40.32 49.60 39.20Q49.60 38.08 51.10 36.18Q52.60 34.28 55.12 32.72Q57.64 31.16 60.04 31.16L60.04 31.16Q60.60 31.16 60.98 31.44Q61.36 31.72 61.36 32.30Q61.36 32.88 60.20 34.04Q59.04 35.20 58.20 35.20ZM70.38 27.92Q70.76 27.92 70.98 28.16Q71.20 28.40 71.20 28.84Q71.20 29.28 70.60 29.96Q70 30.64 69.56 30.64Q69.12 30.64 68.92 30.38Q68.72 30.12 68.72 29.78Q68.72 29.44 69.36 28.68Q70 27.92 70.38 27.92ZM72.80 34.04L73.68 33.32Q74 33.12 74.18 33.12Q74.36 33.12 74.36 33.36L74.36 33.36L74.36 33.48Q74.52 33.48 72.22 35.24Q69.92 37 67.30 38.76Q64.68 40.52 64 40.52L64 40.52Q62.84 40.52 62.84 39.56L62.84 39.56Q62.84 38.40 64.84 35.18Q66.84 31.96 67.76 31.96L67.76 31.96Q68.44 31.96 68.44 32.48Q68.44 33 66.60 35.32Q64.76 37.64 64.76 38.64L64.76 38.64Q64.76 39.20 65.18 39.20Q65.60 39.20 67.28 38.08L67.28 38.08Q70.28 36.08 72.80 34.04L72.80 34.04ZM76.48 34.28L76.48 34.28L77.76 32.32Q77.64 32.28 77.52 32.28L77.52 32.28Q75.84 32.28 73.12 34.84Q70.40 37.40 70.40 38.44L70.40 38.44Q70.40 38.72 70.72 38.72L70.72 38.72Q71.72 38.72 73.76 37.02Q75.80 35.32 76.48 34.28ZM85.40 33.44L85.40 33.52Q77.08 40.24 75.32 40.24L75.32 40.24Q74.64 40.24 74.64 39.44Q74.64 38.64 75.24 36.76L75.24 36.76Q75.24 36.72 75.16 36.72L75.16 36.72Q70.56 40.52 69.04 40.52L69.04 40.52Q68 40.52 68 39.76L68 39.76Q68 38.08 71.62 34.84Q75.24 31.60 77.40 31.60L77.40 31.60Q77.68 31.60 78 32L78 32Q78.92 30.64 88.32 17.24L88.32 17.24Q89.32 16 89.94 16Q90.56 16 90.56 16.40L90.56 16.40Q90.56 17.40 83.68 25.84L83.68 25.84Q81.12 29.04 78.98 32.50Q76.84 35.96 76.84 37.76L76.84 37.76Q76.84 38.52 77.28 38.52L77.28 38.52Q77.80 38.52 79.12 37.60L79.12 37.60Q81.84 35.64 83.88 34L83.88 34L84.64 33.36Q84.92 33.16 85.16 33.16Q85.40 33.16 85.40 33.44L85.40 33.44ZM82.72 38.32L82.72 38.32L82.36 39.08Q82.36 39.20 82.48 39.20L82.48 39.20Q84.52 39.20 87.24 35.88L87.24 35.88Q89.48 33.16 92.72 28.36L92.72 28.36Q91.60 28.44 89.06 28.44Q86.52 28.44 85.64 28.32Q84.76 28.20 84.72 27.64L84.72 27.64Q84.72 27.40 84.84 27.34Q84.96 27.28 87.68 27.28Q90.40 27.28 93.56 27.16L93.56 27.16Q99.76 18.12 103.64 14.44L103.64 14.44Q96.96 15.52 89.24 15.52L89.24 15.52Q86.44 15.52 82.52 15.32L82.52 15.32Q82.20 15.32 82.20 15.60L82.20 15.60Q82.20 15.68 82.28 16L82.28 16Q82.28 16.36 81.74 16.36Q81.20 16.36 80.36 15.80Q79.52 15.24 79.48 14.64L79.48 14.64Q79.48 13.52 80.92 13.52L80.92 13.52Q87.88 14 94.00 14Q100.12 14 104.96 13.28L104.96 13.28Q109.76 9.28 114.24 9.28L114.24 9.28Q116.04 9.28 116.04 9.92L116.04 9.92Q116.04 11.04 111.20 12.64L111.20 12.64Q108.72 13.48 105.44 14.12L105.44 14.12Q102.56 16.84 98.88 22.16L98.88 22.16Q97.64 23.88 95.56 27.04L95.56 27.04L101.48 26.60Q102.32 26.60 102.32 27.48L102.32 27.48Q102.32 27.84 101.56 28.18Q100.80 28.52 100.04 29Q99.28 29.48 99.28 30.14Q99.28 30.80 98.88 30.80L98.88 30.80Q97.04 30.80 97.04 30.08L97.04 30.08Q97.04 29.28 98.04 28.28L98.04 28.28Q98.04 28.12 97.76 28.12L97.76 28.12L95.40 28.24L94.76 28.28Q89.64 36.16 86.76 38.84L86.76 38.84Q83.96 41.44 81.76 41.44L81.76 41.44Q80.36 41.44 80.36 40.32L80.36 40.32Q80.36 39.56 80.96 38.76Q81.56 37.96 82.14 37.96Q82.72 37.96 82.72 38.32ZM112.88 10.40L112.88 10.40Q109.96 10.40 106.72 13L106.72 13Q111.16 12.20 112.64 11.20L112.64 11.20Q113.20 10.80 113.20 10.60Q113.20 10.40 112.88 10.40ZM105.04 35.20L105.04 35.20Q104.80 35.20 104.80 35.02Q104.80 34.84 105.08 34.60L105.08 34.60Q106.40 33.52 106.40 32.64L106.40 32.64Q106.40 32.08 105.40 32L105.40 32Q103.60 32.04 101.10 34.60Q98.60 37.16 98.60 38.44L98.60 38.44Q98.60 38.88 99.10 38.88Q99.60 38.88 100.44 38.20L100.44 38.20Q101.20 37.72 103.28 35.80L103.28 35.80Q103.76 35.32 104.20 35.32L104.20 35.32Q104.76 35.32 104.76 35.84L104.76 35.84Q104.76 36.04 104.64 36.16Q104.52 36.28 104.20 36.66Q103.88 37.04 103.64 37.36L103.64 37.36Q102.92 38.40 102.92 38.72L102.92 38.72Q102.92 39.52 103.56 39.52L103.56 39.52Q104.40 39.52 106.72 37.98Q109.04 36.44 110.96 34.88L110.96 34.88L112.88 33.36Q113.16 33.16 113.40 33.16Q113.64 33.16 113.64 33.44L113.64 33.44L113.64 33.52Q110.56 36.12 107.14 38.40Q103.72 40.68 102.64 40.68L102.64 40.68Q101.36 40.68 101.36 39.32L101.36 39.32Q101.36 39 101.48 38.72Q101.60 38.44 101.60 38.32Q101.60 38.20 101.52 38.16L101.52 38.16Q101.40 38.16 99.98 39.24Q98.56 40.32 97.50 40.32Q96.44 40.32 96.44 39.20Q96.44 38.08 97.94 36.18Q99.44 34.28 101.96 32.72Q104.48 31.16 106.88 31.16L106.88 31.16Q107.44 31.16 107.82 31.44Q108.20 31.72 108.20 32.30Q108.20 32.88 107.04 34.04Q105.88 35.20 105.04 35.20ZM117.22 27.92Q117.60 27.92 117.82 28.16Q118.04 28.40 118.04 28.84Q118.04 29.28 117.44 29.96Q116.84 30.64 116.40 30.64Q115.96 30.64 115.76 30.38Q115.56 30.12 115.56 29.78Q115.56 29.44 116.20 28.68Q116.84 27.92 117.22 27.92ZM119.64 34.04L120.52 33.32Q120.84 33.12 121.02 33.12Q121.20 33.12 121.20 33.36L121.20 33.36L121.20 33.48Q121.36 33.48 119.06 35.24Q116.76 37 114.14 38.76Q111.52 40.52 110.84 40.52L110.84 40.52Q109.68 40.52 109.68 39.56L109.68 39.56Q109.68 38.40 111.68 35.18Q113.68 31.96 114.60 31.96L114.60 31.96Q115.28 31.96 115.28 32.48Q115.28 33 113.44 35.32Q111.60 37.64 111.60 38.64L111.60 38.64Q111.60 39.20 112.02 39.20Q112.44 39.20 114.12 38.08L114.12 38.08Q117.12 36.08 119.64 34.04L119.64 34.04ZM110.12 55.68L110.12 55.68Q111.08 55.68 113.32 53.44Q115.56 51.20 117.60 48.02Q119.64 44.84 119.92 42.64L119.92 42.64Q115.80 45.32 112.74 48.70Q109.68 52.08 109.68 55.08L109.68 55.08Q109.68 55.68 110.12 55.68ZM123.10 39.98Q124.16 39.48 124.48 39.48Q124.80 39.48 124.80 39.76Q124.80 40.04 124.32 40.24L124.32 40.24Q123.00 40.72 121.24 41.84L121.24 41.84L121.24 42.04Q121.24 44.44 118.76 48.04Q116.28 51.64 113.38 54.18Q110.48 56.72 109.12 56.72L109.12 56.72Q108.08 56.72 108.08 55.56L108.08 55.56Q108.08 53.88 109.22 51.90Q110.36 49.92 112.20 48.08L112.20 48.08Q115.80 44.36 120.00 41.72L120.00 41.72Q119.80 39.64 117.32 39.48L117.32 39.48Q116.72 39.48 116.72 39.12L116.72 39.12Q116.72 39 117.28 38.66Q117.84 38.32 119.08 37.56Q120.32 36.80 122.16 35.22Q124.00 33.64 124.00 32.72L124.00 32.72Q124.00 32.28 123.60 32.28L123.60 32.28Q122.68 32.28 120.08 34.36L120.08 34.36L118.84 35.36L118.68 34.76Q119.16 34.40 119.76 33.92L119.76 33.92Q123.36 30.96 125.12 30.96L125.12 30.96Q126.20 30.96 126.20 32.12L126.20 32.12Q126.20 34.48 118.92 38.52L118.92 38.52Q118.60 38.68 118.60 38.84Q118.60 39 118.68 39L118.68 39Q120.68 39.52 121.12 41.04L121.12 41.04Q122.04 40.48 123.10 39.98Z" fill="black"></path></svg>